<svg width="67" height="69" viewBox="0 0 67 69" fill="#d4d4d8" xmlns="http://www.w3.org/2000/svg">
<path d="M61.474 30.131H5.26901C2.36301 30.131 0 32.495 0 35.4V59.598C0 62.504 2.36401 64.867 5.26901 64.867H7.61801V66.717C7.61801 67.847 8.53701 68.766 9.66701 68.766C10.797 68.766 11.716 67.847 11.716 66.717V64.867H55.026V66.717C55.026 67.847 55.945 68.766 57.075 68.766C58.205 68.766 59.124 67.847 59.124 66.717V64.867H61.473C64.379 64.867 66.742 62.503 66.742 59.598V35.4C66.744 32.495 64.38 30.131 61.474 30.131ZM5.27 34.815H61.475C61.798 34.815 62.061 35.078 62.061 35.401V39.736H4.68501V35.401C4.68401 35.078 4.947 34.815 5.27 34.815ZM4.68401 59.599V44.419H31.03V45.885C30.013 45.911 29.195 46.742 29.195 47.766V51.709C29.195 52.733 30.013 53.564 31.03 53.59V60.185H5.26901C4.94701 60.185 4.68401 59.922 4.68401 59.599ZM61.474 60.185H35.713V53.59C36.731 53.564 37.548 52.733 37.548 51.709V47.766C37.548 46.742 36.73 45.911 35.713 45.885V44.419H62.059V59.599C62.06 59.922 61.797 60.185 61.474 60.185Z" fill="#d4d4d8"/>
<path d="M18.168 23.151H27.674V25.455H22.848C22.047 25.455 21.398 26.104 21.398 26.905C21.398 27.706 22.047 28.355 22.848 28.355H43.897C44.698 28.355 45.347 27.706 45.347 26.905C45.347 26.104 44.698 25.455 43.897 25.455H39.071V23.151H48.577C50.292 23.151 51.688 21.755 51.688 20.04V3.11099C51.688 1.39599 50.292 0 48.577 0H18.168C16.453 0 15.057 1.39599 15.057 3.11099V20.04C15.056 21.755 16.452 23.151 18.168 23.151ZM36.659 25.455H30.085V23.151H36.659V25.455ZM19.74 4.68301H47.004V18.467H19.74V4.68301Z" fill="#d4d4d8"/>
</svg>
