<svg width="65" height="51" viewBox="0 0 65 51" fill="#d4d4d8" xmlns="http://www.w3.org/2000/svg">
<path d="M0 5.56393V8.70895C0 11.777 2.496 14.2729 5.564 14.2729H7.19601V15.1529V33.0879V48.446C7.19601 49.739 8.24502 50.7879 9.53802 50.7879C10.831 50.7879 11.88 49.74 11.88 48.446V38.6519H29.191C32.259 38.6519 34.755 36.1559 34.755 33.0879V14.2729H52.302V48.445C52.302 49.738 53.351 50.787 54.644 50.787C55.937 50.787 56.986 49.739 56.986 48.445V14.2729H59.262C62.33 14.2729 64.826 11.777 64.826 8.70895V5.56393C64.826 2.49593 62.33 -3.05176e-05 59.262 -3.05176e-05H5.565C2.496 0.000969482 0 2.49693 0 5.56393ZM11.879 33.0879V26.698H17.189C17.189 27.476 17.82 28.1079 18.598 28.1079H23.35C24.128 28.1079 24.76 27.477 24.76 26.698H30.07V33.0879C30.07 33.5729 29.675 33.9679 29.19 33.9679H12.759C12.274 33.9679 11.879 33.5729 11.879 33.0879ZM24.76 14.4149C24.76 14.3669 24.751 14.3209 24.746 14.2729H29.19C29.675 14.2729 30.07 14.6679 30.07 15.1529V21.5429H11.879V15.1529C11.879 14.6679 12.274 14.2729 12.759 14.2729H17.203C17.198 14.3199 17.189 14.3659 17.189 14.4149C17.189 15.1929 17.82 15.8249 18.598 15.8249H23.35C24.129 15.8239 24.76 15.1929 24.76 14.4149ZM4.68402 5.56393C4.68402 5.07893 5.079 4.68393 5.564 4.68393H59.261C59.746 4.68393 60.141 5.07893 60.141 5.56393V8.70895C60.141 9.19395 59.746 9.58896 59.261 9.58896H29.191H12.759H5.564C5.079 9.58896 4.68402 9.19395 4.68402 8.70895V5.56393Z" fill="#d4d4d8"/>
</svg>
