<svg width="35" height="68" viewBox="0 0 35 68" fill="#d4d4d8" xmlns="http://www.w3.org/2000/svg">
<path d="M24.69 27.293C27.71 25.779 31.216 22.919 32.261 17.636C33.363 16.953 34.101 15.735 34.101 14.346C34.101 12.211 32.364 10.474 30.229 10.474C28.094 10.474 26.357 12.211 26.357 14.346C26.357 15.452 26.825 16.448 27.571 17.154C26.933 19.758 25.327 21.7 22.709 23.046C21.551 23.641 20.377 24.016 19.391 24.254V2.34201C19.391 1.04901 18.343 -3.05176e-05 17.049 -3.05176e-05C15.755 -3.05176e-05 14.707 1.04901 14.707 2.34201V14.501C13.721 14.263 12.548 13.889 11.392 13.294C8.77397 11.948 7.16697 10.006 6.52997 7.40201C7.27597 6.69601 7.74396 5.70002 7.74396 4.59402C7.74396 2.45902 6.00701 0.722015 3.87201 0.722015C1.73701 0.722015 0 2.45902 0 4.59402C0 5.98302 0.737966 7.201 1.83997 7.884C2.88497 13.167 6.39095 16.027 9.41095 17.541C11.3499 18.513 13.283 19.023 14.707 19.291V34.427C13.721 34.189 12.548 33.814 11.392 33.22C8.77397 31.874 7.16697 29.932 6.52997 27.328C7.27597 26.622 7.74396 25.625 7.74396 24.52C7.74396 22.385 6.00701 20.648 3.87201 20.648C1.73701 20.648 0 22.385 0 24.52C0 25.909 0.737966 27.127 1.83997 27.81C2.88497 33.093 6.39095 35.953 9.41095 37.467C11.3499 38.439 13.283 38.949 14.707 39.217V55.107C8.80097 55.837 1.82196 59.16 1.82196 64.036V65.511C1.82196 66.804 2.87 67.853 4.164 67.853C5.457 67.853 6.50598 66.804 6.50598 65.511V64.036C6.50598 63.588 7.35697 62.472 9.64197 61.385C11.874 60.324 14.782 59.638 17.051 59.638C19.32 59.638 22.229 60.324 24.46 61.385C26.745 62.471 27.596 63.587 27.596 64.036V65.511C27.596 66.804 28.644 67.853 29.938 67.853C31.232 67.853 32.28 66.804 32.28 65.511V64.036C32.28 59.158 25.297 55.835 19.39 55.107V29.043C20.815 28.776 22.75 28.265 24.69 27.293Z" fill="#d4d4d8"/>
</svg>
