<svg width="66" height="60" viewBox="0 0 66 60" fill="none" xmlns="http://www.w3.org/2000/svg">
<path d="M60.176 30.725V12.303C60.176 11.01 59.128 9.96098 57.834 9.96098C56.54 9.96098 55.492 11.009 55.492 12.303V16.438C54.209 14.419 52.322 12.585 49.89 11.033C45.33 8.12199 39.313 6.51898 32.949 6.51898C26.585 6.51898 20.5681 8.12199 16.0081 11.033C13.5761 12.585 11.689 14.419 10.406 16.438V12.303C10.406 11.01 9.35803 9.96098 8.06403 9.96098C6.77103 9.96098 5.72205 11.009 5.72205 12.303V30.725C2.55305 30.81 0 33.409 0 36.598V41.267V42.69V57.274C0 58.567 1.04804 59.616 2.34204 59.616C3.63604 59.616 4.68402 58.567 4.68402 57.274V48.447C5.07102 48.527 5.47104 48.57 5.88104 48.57H60.018C60.428 48.57 60.828 48.527 61.215 48.447V57.274C61.215 58.567 62.263 59.616 63.557 59.616C64.85 59.616 65.899 58.567 65.899 57.274V42.69V41.267V36.598C65.898 33.409 63.345 30.811 60.176 30.725ZM32.949 11.204C42.36 11.204 50.492 15.348 52.375 20.676H13.524C15.406 15.348 23.539 11.204 32.949 11.204ZM55.493 25.36V30.718H10.406V25.36H55.493ZM61.215 41.267V42.69C61.215 43.35 60.678 43.887 60.018 43.887H5.88104C5.22104 43.887 4.68402 43.35 4.68402 42.69V41.267V36.598C4.68402 35.938 5.22104 35.401 5.88104 35.401H60.018C60.678 35.401 61.215 35.938 61.215 36.598V41.267Z" fill="white"/>
<path d="M8.06403 7.16C10.038 7.16 11.645 5.554 11.645 3.58C11.645 1.606 10.039 0 8.06403 0C6.09003 0 4.48401 1.606 4.48401 3.58C4.48401 5.554 6.09003 7.16 8.06403 7.16Z" fill="white"/>
<path d="M57.835 7.16C59.809 7.16 61.415 5.554 61.415 3.58C61.415 1.606 59.809 0 57.835 0C55.861 0 54.254 1.606 54.254 3.58C54.254 5.554 55.86 7.16 57.835 7.16Z" fill="white"/>
</svg>
