<svg width="74" height="68" viewBox="0 0 74 68" fill="none" xmlns="http://www.w3.org/2000/svg">
<path d="M73.629 34.479C73.629 31.146 70.917 28.434 67.584 28.434H10.143V8.78601C10.143 6.52401 11.983 4.68402 14.245 4.68402H15.319C16.43 4.68402 17.478 5.13601 18.24 5.90701L18.058 6.08902C15.001 9.14602 15.001 14.121 18.058 17.178L19.095 18.215C19.552 18.672 20.151 18.901 20.751 18.901C21.35 18.901 21.95 18.672 22.407 18.215L32.647 7.97501C33.562 7.06001 33.562 5.57799 32.647 4.66299L31.61 3.62601C30.129 2.14501 28.16 1.32901 26.066 1.32901C24.465 1.32901 22.938 1.80699 21.646 2.69299C20.01 0.996993 17.735 0 15.32 0H14.246C9.402 0 5.461 3.941 5.461 8.785V28.462C2.401 28.757 0 31.341 0 34.477C0 37.041 1.608 39.232 3.866 40.109V47.827C3.866 54.634 8.711 60.332 15.134 61.652L13.125 63.661C12.211 64.575 12.211 66.058 13.125 66.973C13.582 67.43 14.182 67.659 14.781 67.659C15.38 67.659 15.98 67.43 16.437 66.973L21.472 61.94H52.157L57.193 66.973C57.65 67.43 58.249 67.659 58.849 67.659C59.448 67.659 60.048 67.43 60.505 66.973C61.419 66.059 61.419 64.576 60.505 63.661L58.496 61.652C64.919 60.332 69.764 54.635 69.764 47.827V40.109C72.021 39.234 73.629 37.044 73.629 34.479ZM26.065 6.01401C26.608 6.01401 27.13 6.15001 27.592 6.40601L20.838 13.16C20.176 11.96 20.353 10.417 21.37 9.401L23.833 6.93802C24.429 6.34302 25.221 6.01401 26.065 6.01401ZM6.043 33.118H67.584C68.335 33.118 68.945 33.729 68.945 34.479C68.945 35.229 68.334 35.84 67.584 35.84H6.043C5.292 35.84 4.68201 35.229 4.68201 34.479C4.68201 33.729 5.293 33.118 6.043 33.118ZM65.079 47.829C65.079 53.028 60.849 57.259 55.649 57.259H17.979C12.779 57.259 8.548 53.029 8.548 47.829V40.592H65.079V47.829Z" fill="white"/>
<path d="M29.658 23.66C29.88 23.882 30.17 23.993 30.461 23.993C30.752 23.993 31.042 23.882 31.264 23.66C31.707 23.217 31.707 22.498 31.264 22.055L30.12 20.911C29.677 20.468 28.958 20.468 28.515 20.911C28.072 21.354 28.072 22.073 28.515 22.516L29.658 23.66Z" fill="white"/>
<path d="M33.089 22.516L34.233 23.66C34.455 23.882 34.745 23.992 35.036 23.992C35.326 23.992 35.617 23.881 35.839 23.659C36.282 23.216 36.282 22.497 35.839 22.054L34.695 20.91C34.252 20.467 33.533 20.467 33.09 20.91C32.646 21.354 32.646 22.073 33.089 22.516Z" fill="white"/>
<path d="M28.976 17.479L27.832 16.335C27.389 15.892 26.67 15.892 26.227 16.335C25.784 16.778 25.784 17.497 26.227 17.94L27.371 19.084C27.593 19.306 27.883 19.416 28.174 19.416C28.465 19.416 28.755 19.305 28.977 19.084C29.419 18.641 29.419 17.923 28.976 17.479Z" fill="white"/>
<path d="M32.407 16.336C31.964 15.893 31.245 15.893 30.802 16.336C30.359 16.779 30.359 17.498 30.802 17.941L31.946 19.085C32.168 19.307 32.458 19.417 32.749 19.417C33.039 19.417 33.33 19.306 33.552 19.085C33.995 18.642 33.995 17.923 33.552 17.48L32.407 16.336Z" fill="white"/>
<path d="M30.733 11.692C30.29 12.135 30.29 12.854 30.733 13.297L31.877 14.441C32.099 14.663 32.389 14.773 32.68 14.773C32.971 14.773 33.261 14.662 33.483 14.44C33.926 13.997 33.926 13.278 33.483 12.835L32.339 11.691C31.895 11.249 31.176 11.249 30.733 11.692Z" fill="white"/>
<path d="M36.299 17.717C36.521 17.939 36.811 18.049 37.102 18.049C37.393 18.049 37.683 17.938 37.905 17.716C38.348 17.273 38.348 16.554 37.905 16.111L36.761 14.967C36.318 14.524 35.599 14.524 35.156 14.967C34.713 15.41 34.713 16.129 35.156 16.572L36.299 17.717Z" fill="white"/>
</svg>
