<svg width="70" height="40" viewBox="0 0 70 40" fill="none" xmlns="http://www.w3.org/2000/svg">
<path d="M39.0373 35.2249H36.9033V14.1419H49.4473C50.7403 14.1419 51.7893 13.0929 51.7893 11.7999C51.7893 10.5069 50.7413 9.45789 49.4473 9.45789H19.6743C18.3813 9.45789 17.3323 10.5069 17.3323 11.7999C17.3323 13.0929 18.3813 14.1419 19.6743 14.1419H32.2193V35.2249H30.0843C28.7913 35.2249 27.7423 36.2739 27.7423 37.5669C27.7423 38.8599 28.7903 39.9089 30.0843 39.9089H39.0373C40.3303 39.9089 41.3793 38.8599 41.3793 37.5669C41.3793 36.2729 40.3313 35.2249 39.0373 35.2249Z" fill="white"/>
<path d="M23.7723 24.3349C23.7723 23.0419 22.7233 21.9929 21.4303 21.9929H17.6663H11.0243C7.45433 21.9929 6.70331 16.7929 6.67231 16.5589L4.66234 2.02089C4.48534 0.739889 3.30331 -0.153104 2.02131 0.0218959C0.740314 0.198896 -0.154679 1.38089 0.0223209 2.66289L2.02931 17.1779C2.29731 19.2629 3.37233 22.5239 5.69133 24.6309L3.27931 37.1819C3.03531 38.4519 3.86731 39.6799 5.13731 39.9239C6.40831 40.1689 7.63532 39.3359 7.87932 38.0659L10.0673 26.6769H15.7313L17.9193 38.0659C18.1343 39.1869 19.1163 39.9659 20.2163 39.9659C20.3623 39.9659 20.5113 39.9519 20.6603 39.9229C21.9303 39.6789 22.7623 38.4519 22.5183 37.1809L20.4993 26.6759H21.4283C22.7233 26.6769 23.7723 25.6279 23.7723 24.3349Z" fill="white"/>
<path d="M67.1004 0.0218959C65.8204 -0.153104 64.6374 0.739889 64.4594 2.02089L62.4474 16.5719C62.4174 16.7929 61.6664 21.9929 58.0964 21.9929H51.4544H47.6914C46.3984 21.9929 45.3494 23.0419 45.3494 24.3349C45.3494 25.6279 46.3974 26.6769 47.6914 26.6769H48.6204L46.6024 37.1819C46.3584 38.4519 47.1904 39.6799 48.4604 39.9239C49.7314 40.1689 50.9584 39.3359 51.2024 38.0659L53.3904 26.6769H59.0544L61.2424 38.0659C61.4574 39.1869 62.4394 39.9659 63.5394 39.9659C63.6864 39.9659 63.8344 39.9519 63.9834 39.9229C65.2534 39.6789 66.0854 38.4519 65.8414 37.1809L63.4304 24.6309C65.7494 22.5259 66.8234 19.2699 67.0894 17.1999L69.0994 2.6619C69.2764 1.3809 68.3814 0.198896 67.1004 0.0218959Z" fill="white"/>
</svg>
